<svg width="300" height="300"  viewBox="0 0 500 500" xmlns="http://www.w3.org/2000/svg" version="1.1">
<g transform="translate(250,250)">
<g display="none">
<path d="M0,176.7766952966369A176.7766952966369,176.7766952966369 0 1,1 0,-176.7766952966369A176.7766952966369,176.7766952966369 0 1,1 0,176.7766952966369Z" style="stroke: rgb(255, 255, 255); fill: rgb(191, 105, 105); fill-rule: evenodd;">
</path>
<text transform="rotate(90)" x="0" dx="6" dy=".35em" style="font-size: 11px; font-family: Arial, Helvetica;">
</text>
<title>
undefined: none</title>
</g>
<g>
<path d="M1.5308084989341916e-14,-250A250,250 0 0,1 1.5308084989341916e-14,-250L1.0824450702943666e-14,-176.7766952966369A176.7766952966369,176.7766952966369 0 0,0 1.0824450702943666e-14,-176.7766952966369Z" style="stroke: rgb(255, 255, 255); fill: rgb(191, 105, 105); fill-rule: evenodd;">
</path>
<text transform="rotate(-90)" x="176.7766952966369" dx="6" dy=".35em" style="font-size: 11px; font-family: Arial, Helvetica;">
</text>
<title>
t504205: none</title>
</g>
<g>
<path d="M1.5308084989341916e-14,-250A250,250 0 0,1 1.5308084989341916e-14,-250L1.0824450702943666e-14,-176.7766952966369A176.7766952966369,176.7766952966369 0 0,0 1.0824450702943666e-14,-176.7766952966369Z" style="stroke: rgb(255, 255, 255); fill: rgb(191, 114, 105); fill-rule: evenodd;">
</path>
<text transform="rotate(-90)" x="176.7766952966369" dx="6" dy=".35em" style="font-size: 11px; font-family: Arial, Helvetica;">
</text>
<title>
t5807: none</title>
</g>
<g>
<path d="M1.5308084989341916e-14,-250A250,250 0 0,1 1.5308084989341916e-14,-250L1.0824450702943666e-14,-176.7766952966369A176.7766952966369,176.7766952966369 0 0,0 1.0824450702943666e-14,-176.7766952966369Z" style="stroke: rgb(255, 255, 255); fill: rgb(191, 123, 105); fill-rule: evenodd;">
</path>
<text transform="rotate(-90)" x="176.7766952966369" dx="6" dy=".35em" style="font-size: 11px; font-family: Arial, Helvetica;">
</text>
<title>
t1695: none</title>
</g>
<g>
<path d="M1.5308084989341916e-14,-250A250,250 0 0,1 19.05998498142293,-249.27237506893528L13.477444629677905,-176.26218677372063A176.7766952966369,176.7766952966369 0 0,0 1.0824450702943666e-14,-176.7766952966369Z" style="stroke: rgb(255, 255, 255); fill: rgb(191, 132, 105); fill-rule: evenodd;">
</path>
<text transform="rotate(-87.81376518218623)" x="176.7766952966369" dx="6" dy=".35em" style="font-size: 11px; font-family: Arial, Helvetica;">
3</text>
<title>
t16000: 3</title>
</g>
<g>
<path d="M19.05998498142293,-249.27237506893528A250,250 0 0,1 38.00902180078021,-247.09373578006347L26.876437061599006,-174.72165615879993A176.7766952966369,176.7766952966369 0 0,0 13.477444629677905,-176.26218677372063Z" style="stroke: rgb(255, 255, 255); fill: rgb(191, 141, 105); fill-rule: evenodd;">
</path>
<text transform="rotate(-83.4412955465587)" x="176.7766952966369" dx="6" dy=".35em" style="font-size: 11px; font-family: Arial, Helvetica;">
3</text>
<title>
t16711: 3</title>
</g>
<g>
<path d="M38.00902180078021,-247.09373578006347A250,250 0 0,1 56.73680812519645,-243.4767639914837L40.11898176820642,-172.16407087973474A176.7766952966369,176.7766952966369 0 0,0 26.876437061599006,-174.72165615879993Z" style="stroke: rgb(255, 255, 255); fill: rgb(191, 149, 105); fill-rule: evenodd;">
</path>
<text transform="rotate(-79.06882591093117)" x="176.7766952966369" dx="6" dy=".35em" style="font-size: 11px; font-family: Arial, Helvetica;">
3</text>
<title>
t9477: 3</title>
</g>
<g>
<path d="M56.73680812519645,-243.4767639914837A250,250 0 0,1 81.17486730117089,-236.45431042515867L57.39929913057608,-167.19844634241866A176.7766952966369,176.7766952966369 0 0,0 40.11898176820642,-172.16407087973474Z" style="stroke: rgb(255, 255, 255); fill: rgb(191, 158, 105); fill-rule: evenodd;">
</path>
<text transform="rotate(-73.96761133603239)" x="176.7766952966369" dx="6" dy=".35em" style="font-size: 11px; font-family: Arial, Helvetica;">
4</text>
<title>
t26170: 4</title>
</g>
<g>
<path d="M81.17486730117089,-236.45431042515867A250,250 0 0,1 104.77321002266825,-226.98584639035505L74.08584729371107,-160.50323121598808A176.7766952966369,176.7766952966369 0 0,0 57.39929913057608,-167.19844634241866Z" style="stroke: rgb(255, 255, 255); fill: rgb(191, 167, 105); fill-rule: evenodd;">
</path>
<text transform="rotate(-68.13765182186235)" x="176.7766952966369" dx="6" dy=".35em" style="font-size: 11px; font-family: Arial, Helvetica;">
4</text>
<title>
t257: 4</title>
</g>
<g>
<path d="M104.77321002266825,-226.98584639035505A250,250 0 0,1 127.28772234974079,-215.16931876783758L90.00601163529217,-152.1476844040278A176.7766952966369,176.7766952966369 0 0,0 74.08584729371107,-160.50323121598808Z" style="stroke: rgb(255, 255, 255); fill: rgb(191, 176, 105); fill-rule: evenodd;">
</path>
<text transform="rotate(-62.30769230769231)" x="176.7766952966369" dx="6" dy=".35em" style="font-size: 11px; font-family: Arial, Helvetica;">
4</text>
<title>
t7839: 4</title>
</g>
<g>
<path d="M127.28772234974079,-215.16931876783758A250,250 0 0,1 148.48550206654096,-201.12696407008002L104.99510541914023,-142.2182401734167A176.7766952966369,176.7766952966369 0 0,0 90.00601163529217,-152.1476844040278Z" style="stroke: rgb(255, 255, 255); fill: rgb(191, 185, 105); fill-rule: evenodd;">
</path>
<text transform="rotate(-56.47773279352227)" x="176.7766952966369" dx="6" dy=".35em" style="font-size: 11px; font-family: Arial, Helvetica;">
4</text>
<title>
t4091: 4</title>
</g>
<g>
<path d="M148.48550206654096,-201.12696407008002A250,250 0 0,1 168.1472679470147,-185.00404396108436L118.89807340332551,-130.8176140318169A176.7766952966369,176.7766952966369 0 0,0 104.99510541914023,-142.2182401734167Z" style="stroke: rgb(255, 255, 255); fill: rgb(188, 191, 105); fill-rule: evenodd;">
</path>
<text transform="rotate(-50.64777327935222)" x="176.7766952966369" dx="6" dy=".35em" style="font-size: 11px; font-family: Arial, Helvetica;">
4</text>
<title>
t99: 4</title>
</g>
<g>
<path d="M168.1472679470147,-185.00404396108436A250,250 0 0,1 186.06962811775557,-166.9673425916582L131.57109581492406,-118.06374018325897A176.7766952966369,176.7766952966369 0 0,0 118.89807340332551,-130.8176140318169Z" style="stroke: rgb(255, 255, 255); fill: rgb(179, 191, 105); fill-rule: evenodd;">
</path>
<text transform="rotate(-44.817813765182194)" x="176.7766952966369" dx="6" dy=".35em" style="font-size: 11px; font-family: Arial, Helvetica;">
4</text>
<title>
t4333: 4</title>
</g>
<g>
<path d="M186.06962811775557,-166.9673425916582A250,250 0 0,1 202.06718405285523,-147.20344129452113L142.88307609904413,-104.08855155335175A176.7766952966369,176.7766952966369 0 0,0 131.57109581492406,-118.06374018325897Z" style="stroke: rgb(255, 255, 255); fill: rgb(170, 191, 105); fill-rule: evenodd;">
</path>
<text transform="rotate(-38.98785425101215)" x="176.7766952966369" dx="6" dy=".35em" style="font-size: 11px; font-family: Arial, Helvetica;">
4</text>
<title>
t2302: 4</title>
</g>
<g>
<path d="M202.06718405285523,-147.20344129452113A250,250 0 0,1 215.97444843589747,-125.91678848672194L152.71699705204745,-89.03661500419328A176.7766952966369,176.7766952966369 0 0,0 142.88307609904413,-104.08855155335175Z" style="stroke: rgb(255, 255, 255); fill: rgb(161, 191, 105); fill-rule: evenodd;">
</path>
<text transform="rotate(-33.15789473684212)" x="176.7766952966369" dx="6" dy=".35em" style="font-size: 11px; font-family: Arial, Helvetica;">
4</text>
<title>
t178: 4</title>
</g>
<g>
<path d="M215.97444843589747,-125.91678848672194A250,250 0 0,1 227.64755704969937,-103.3275847453325L160.97113131039387,-73.06363585705228A176.7766952966369,176.7766952966369 0 0,0 152.71699705204745,-89.03661500419328Z" style="stroke: rgb(255, 255, 255); fill: rgb(152, 191, 105); fill-rule: evenodd;">
</path>
<text transform="rotate(-27.327935222672078)" x="176.7766952966369" dx="6" dy=".35em" style="font-size: 11px; font-family: Arial, Helvetica;">
4</text>
<title>
t3389: 4</title>
</g>
<g>
<path d="M227.64755704969937,-103.3275847453325A250,250 0 0,1 236.96575698509344,-79.66950493433258L167.56009367316307,-56.33484719284168A176.7766952966369,176.7766952966369 0 0,0 160.97113131039387,-73.06363585705228Z" style="stroke: rgb(255, 255, 255); fill: rgb(143, 191, 105); fill-rule: evenodd;">
</path>
<text transform="rotate(-21.497975708502036)" x="176.7766952966369" dx="6" dy=".35em" style="font-size: 11px; font-family: Arial, Helvetica;">
4</text>
<title>
t6602: 4</title>
</g>
<g>
<path d="M236.96575698509344,-79.66950493433258A250,250 0 0,1 243.83265577391793,-55.18728094622929L172.41572437246256,-39.02330059232588A176.7766952966369,176.7766952966369 0 0,0 167.56009367316307,-56.33484719284168Z" style="stroke: rgb(255, 255, 255); fill: rgb(135, 191, 105); fill-rule: evenodd;">
</path>
<text transform="rotate(-15.668016194331988)" x="176.7766952966369" dx="6" dy=".35em" style="font-size: 11px; font-family: Arial, Helvetica;">
4</text>
<title>
t1974: 4</title>
</g>
<g>
<path d="M243.83265577391793,-55.18728094622929A250,250 0 0,1 248.1772185245135,-30.134170063830737L175.48779415469915,-21.308075997563375A176.7766952966369,176.7766952966369 0 0,0 172.41572437246256,-39.02330059232588Z" style="stroke: rgb(255, 255, 255); fill: rgb(126, 191, 105); fill-rule: evenodd;">
</path>
<text transform="rotate(-9.838056680161946)" x="176.7766952966369" dx="6" dy=".35em" style="font-size: 11px; font-family: Arial, Helvetica;">
4</text>
<title>
t3696: 4</title>
</g>
<g>
<path d="M248.1772185245135,-30.134170063830737A250,250 0 0,1 249.95450274481976,-4.7693351308005205L176.74452387897355,-3.3724292127402777A176.7766952966369,176.7766952966369 0 0,0 175.48779415469915,-21.308075997563375Z" style="stroke: rgb(255, 255, 255); fill: rgb(117, 191, 105); fill-rule: evenodd;">
</path>
<text transform="rotate(-4.008097165991901)" x="176.7766952966369" dx="6" dy=".35em" style="font-size: 11px; font-family: Arial, Helvetica;">
4</text>
<title>
t1156: 4</title>
</g>
<g>
<path d="M249.95450274481976,-4.7693351308005205A250,250 0 0,1 249.14612325166746,20.64483636808314L176.17291325759342,14.598103792358245A176.7766952966369,176.7766952966369 0 0,0 176.74452387897355,-3.3724292127402777Z" style="stroke: rgb(255, 255, 255); fill: rgb(108, 191, 105); fill-rule: evenodd;">
</path>
<text transform="rotate(1.8218623481781426)" x="176.7766952966369" dx="6" dy=".35em" style="font-size: 11px; font-family: Arial, Helvetica;">
4</text>
<title>
t534: 4</title>
</g>
<g>
<path d="M249.14612325166746,20.64483636808314A250,250 0 0,1 245.76044235699413,45.845446584089096L173.7788753380362,32.417626166135044A176.7766952966369,176.7766952966369 0 0,0 176.17291325759342,14.598103792358245Z" style="stroke: rgb(255, 255, 255); fill: rgb(105, 191, 111); fill-rule: evenodd;">
</path>
<text transform="rotate(7.651821862348187)" x="176.7766952966369" dx="6" dy=".35em" style="font-size: 11px; font-family: Arial, Helvetica;">
4</text>
<title>
t535: 4</title>
</g>
<g>
<path d="M245.76044235699413,45.845446584089096A250,250 0 0,1 239.8324833635952,70.57180686117395L169.587175335208,49.901803192123424A176.7766952966369,176.7766952966369 0 0,0 173.7788753380362,32.417626166135044Z" style="stroke: rgb(255, 255, 255); fill: rgb(105, 191, 120); fill-rule: evenodd;">
</path>
<text transform="rotate(13.481781376518231)" x="176.7766952966369" dx="6" dy=".35em" style="font-size: 11px; font-family: Arial, Helvetica;">
4</text>
<title>
t5913: 4</title>
</g>
<g>
<path d="M239.8324833635952,70.57180686117395A250,250 0 0,1 231.42356826525662,94.56813443954631L163.64117444675085,66.86976914636429A176.7766952966369,176.7766952966369 0 0,0 169.587175335208,49.901803192123424Z" style="stroke: rgb(255, 255, 255); fill: rgb(105, 191, 129); fill-rule: evenodd;">
</path>
<text transform="rotate(19.311740890688277)" x="176.7766952966369" dx="6" dy=".35em" style="font-size: 11px; font-family: Arial, Helvetica;">
4</text>
<title>
t319: 4</title>
</g>
<g>
<path d="M231.42356826525662,94.56813443954631A250,250 0 0,1 220.62068339909408,117.58619841000342L156.00238130150979,83.14599826966025A176.7766952966369,176.7766952966369 0 0,0 163.64117444675085,66.86976914636429Z" style="stroke: rgb(255, 255, 255); fill: rgb(105, 191, 138); fill-rule: evenodd;">
</path>
<text transform="rotate(25.141700404858323)" x="176.7766952966369" dx="6" dy=".35em" style="font-size: 11px; font-family: Arial, Helvetica;">
4</text>
<title>
t28629: 4</title>
</g>
<g>
<path d="M220.62068339909408,117.58619841000342A250,250 0 0,1 207.53557961213124,139.38788754786674L146.7498156812186,98.5621205003645A176.7766952966369,176.7766952966369 0 0,0 156.00238130150979,83.14599826966025Z" style="stroke: rgb(255, 255, 255); fill: rgb(105, 191, 146); fill-rule: evenodd;">
</path>
<text transform="rotate(30.971659919028376)" x="176.7766952966369" dx="6" dy=".35em" style="font-size: 11px; font-family: Arial, Helvetica;">
4</text>
<title>
t63: 4</title>
</g>
<g>
<path d="M207.53557961213124,139.38788754786674A250,250 0 0,1 192.30361625047803,159.747673463462L135.97919109740857,112.95866318478828A176.7766952966369,176.7766952966369 0 0,0 146.7498156812186,98.5621205003645Z" style="stroke: rgb(255, 255, 255); fill: rgb(105, 191, 155); fill-rule: evenodd;">
</path>
<text transform="rotate(36.80161943319841)" x="176.7766952966369" dx="6" dy=".35em" style="font-size: 11px; font-family: Arial, Helvetica;">
4</text>
<title>
t139: 4</title>
</g>
<g>
<path d="M192.30361625047803,159.747673463462A250,250 0 0,1 175.08236092950636,178.45494358899134L123.80192467940459,126.18670074803858A176.7766952966369,176.7766952966369 0 0,0 135.97919109740857,112.95866318478828Z" style="stroke: rgb(255, 255, 255); fill: rgb(105, 191, 164); fill-rule: evenodd;">
</path>
<text transform="rotate(42.63157894736844)" x="176.7766952966369" dx="6" dy=".35em" style="font-size: 11px; font-family: Arial, Helvetica;">
4</text>
<title>
t380: 4</title>
</g>
<g>
<path d="M175.08236092950636,178.45494358899134A250,250 0 0,1 156.04995956975236,195.3161798681273L110.34398461565848,138.10939526020425A176.7766952966369,176.7766952966369 0 0,0 123.80192467940459,126.18670074803858Z" style="stroke: rgb(255, 255, 255); fill: rgb(105, 191, 173); fill-rule: evenodd;">
</path>
<text transform="rotate(48.46153846153847)" x="176.7766952966369" dx="6" dy=".35em" style="font-size: 11px; font-family: Arial, Helvetica;">
4</text>
<title>
t6867: 4</title>
</g>
<g>
<path d="M156.04995956975236,195.3161798681273A250,250 0 0,1 135.40329355977076,210.1569606107933L95.7445870711067,148.6034119614461A176.7766952966369,176.7766952966369 0 0,0 110.34398461565848,138.10939526020425Z" style="stroke: rgb(255, 255, 255); fill: rgb(105, 191, 182); fill-rule: evenodd;">
</path>
<text transform="rotate(54.2914979757085)" x="176.7766952966369" dx="6" dy=".35em" style="font-size: 11px; font-family: Arial, Helvetica;">
4</text>
<title>
t17272: 4</title>
</g>
<g>
<path d="M135.40329355977076,210.1569606107933A250,250 0 0,1 107.65169022448353,225.6349121740956L76.12124016392588,159.54797647073408A176.7766952966369,176.7766952966369 0 0,0 95.7445870711067,148.6034119614461Z" style="stroke: rgb(255, 255, 255); fill: rgb(105, 191, 191); fill-rule: evenodd;">
</path>
<text transform="rotate(60.85020242914979)" x="176.7766952966369" dx="6" dy=".35em" style="font-size: 11px; font-family: Arial, Helvetica;">
5</text>
<title>
t13772: 5</title>
</g>
<g>
<path d="M107.65169022448353,225.6349121740956A250,250 0 0,1 78.16092048613562,237.46761991640037L55.26811689952905,167.91496435511635A176.7766952966369,176.7766952966369 0 0,0 76.12124016392588,159.54797647073408Z" style="stroke: rgb(255, 255, 255); fill: rgb(105, 182, 191); fill-rule: evenodd;">
</path>
<text transform="rotate(68.13765182186233)" x="176.7766952966369" dx="6" dy=".35em" style="font-size: 11px; font-family: Arial, Helvetica;">
5</text>
<title>
t1120: 5</title>
</g>
<g>
<path d="M78.16092048613562,237.46761991640037A250,250 0 0,1 47.407422344189754,245.46392058035659L33.52210981815123,173.5692027790063A176.7766952966369,176.7766952966369 0 0,0 55.26811689952905,167.91496435511635Z" style="stroke: rgb(255, 255, 255); fill: rgb(105, 173, 191); fill-rule: evenodd;">
</path>
<text transform="rotate(75.42510121457488)" x="176.7766952966369" dx="6" dy=".35em" style="font-size: 11px; font-family: Arial, Helvetica;">
5</text>
<title>
t11844: 5</title>
</g>
<g>
<path d="M47.407422344189754,245.46392058035659A250,250 0 0,1 15.888033801221901,249.4946299661202L11.234536440565085,176.419344718672A176.7766952966369,176.7766952966369 0 0,0 33.52210981815123,173.5692027790063Z" style="stroke: rgb(255, 255, 255); fill: rgb(105, 164, 191); fill-rule: evenodd;">
</path>
<text transform="rotate(82.71255060728743)" x="176.7766952966369" dx="6" dy=".35em" style="font-size: 11px; font-family: Arial, Helvetica;">
5</text>
<title>
t1264: 5</title>
</g>
<g>
<path d="M15.888033801221901,249.4946299661202A250,250 0 0,1 -15.888033801221539,249.49462996612021L-11.234536440564831,176.41934471867202A176.7766952966369,176.7766952966369 0 0,0 11.234536440565085,176.419344718672Z" style="stroke: rgb(255, 255, 255); fill: rgb(105, 155, 191); fill-rule: evenodd;">
</path>
<text transform="rotate(89.99999999999997)" x="176.7766952966369" dx="6" dy=".35em" style="font-size: 11px; font-family: Arial, Helvetica;">
5</text>
<title>
t2286: 5</title>
</g>
<g>
<path d="M-15.888033801221539,249.49462996612021A250,250 0 0,1 -47.4074223441894,245.46392058035667L-33.52210981815098,173.56920277900636A176.7766952966369,176.7766952966369 0 0,0 -11.234536440564831,176.41934471867202Z" style="stroke: rgb(255, 255, 255); fill: rgb(105, 146, 191); fill-rule: evenodd;">
</path>
<text transform="rotate(97.28744939271252)" x="176.7766952966369" dx="6" dy=".35em" style="font-size: 11px; font-family: Arial, Helvetica;">
5</text>
<title>
t6153: 5</title>
</g>
<g>
<path d="M-47.4074223441894,245.46392058035667A250,250 0 0,1 -78.1609204861353,237.46761991640048L-55.26811689952881,167.91496435511644A176.7766952966369,176.7766952966369 0 0,0 -33.52210981815098,173.56920277900636Z" style="stroke: rgb(255, 255, 255); fill: rgb(105, 138, 191); fill-rule: evenodd;">
</path>
<text transform="rotate(104.57489878542506)" x="176.7766952966369" dx="6" dy=".35em" style="font-size: 11px; font-family: Arial, Helvetica;">
5</text>
<title>
t41321: 5</title>
</g>
<g>
<path d="M-78.1609204861353,237.46761991640048A250,250 0 0,1 -107.65169022448322,225.63491217409575L-76.12124016392565,159.5479764707342A176.7766952966369,176.7766952966369 0 0,0 -55.26811689952881,167.91496435511644Z" style="stroke: rgb(255, 255, 255); fill: rgb(105, 129, 191); fill-rule: evenodd;">
</path>
<text transform="rotate(111.86234817813762)" x="176.7766952966369" dx="6" dy=".35em" style="font-size: 11px; font-family: Arial, Helvetica;">
5</text>
<title>
t52574: 5</title>
</g>
<g>
<path d="M-107.65169022448322,225.63491217409575A250,250 0 0,1 -135.40329355977045,210.15696061079353L-95.74458707110648,148.60341196144628A176.7766952966369,176.7766952966369 0 0,0 -76.12124016392565,159.5479764707342Z" style="stroke: rgb(255, 255, 255); fill: rgb(105, 120, 191); fill-rule: evenodd;">
</path>
<text transform="rotate(119.14979757085015)" x="176.7766952966369" dx="6" dy=".35em" style="font-size: 11px; font-family: Arial, Helvetica;">
5</text>
<title>
t9284: 5</title>
</g>
<g>
<path d="M-135.40329355977045,210.15696061079353A250,250 0 0,1 -160.9673895876308,191.2838192041969L-113.8211327273106,135.2580856905492A176.7766952966369,176.7766952966369 0 0,0 -95.74458707110648,148.60341196144628Z" style="stroke: rgb(255, 255, 255); fill: rgb(105, 111, 191); fill-rule: evenodd;">
</path>
<text transform="rotate(126.4372469635627)" x="176.7766952966369" dx="6" dy=".35em" style="font-size: 11px; font-family: Arial, Helvetica;">
5</text>
<title>
t876769: 5</title>
</g>
<g>
<path d="M-160.9673895876308,191.2838192041969A250,250 0 0,1 -183.9309776682827,169.32039290643553L-130.05884157951414,119.72759801731117A176.7766952966369,176.7766952966369 0 0,0 -113.8211327273106,135.2580856905492Z" style="stroke: rgb(255, 255, 255); fill: rgb(108, 105, 191); fill-rule: evenodd;">
</path>
<text transform="rotate(133.72469635627525)" x="176.7766952966369" dx="6" dy=".35em" style="font-size: 11px; font-family: Arial, Helvetica;">
5</text>
<title>
t1061: 5</title>
</g>
<g>
<path d="M-183.9309776682827,169.32039290643553A250,250 0 0,1 -203.92306965653023,144.62151175346605L-144.19538539450923,102.26285166632583A176.7766952966369,176.7766952966369 0 0,0 -130.05884157951414,119.72759801731117Z" style="stroke: rgb(255, 255, 255); fill: rgb(117, 105, 191); fill-rule: evenodd;">
</path>
<text transform="rotate(141.0121457489878)" x="176.7766952966369" dx="6" dy=".35em" style="font-size: 11px; font-family: Arial, Helvetica;">
5</text>
<title>
t34748: 5</title>
</g>
<g>
<path d="M-203.92306965653023,144.62151175346605A250,250 0 0,1 -220.62068339909408,117.58619841000345L-156.00238130150979,83.14599826966028A176.7766952966369,176.7766952966369 0 0,0 -144.19538539450923,102.26285166632583Z" style="stroke: rgb(255, 255, 255); fill: rgb(126, 105, 191); fill-rule: evenodd;">
</path>
<text transform="rotate(148.29959514170037)" x="176.7766952966369" dx="6" dy=".35em" style="font-size: 11px; font-family: Arial, Helvetica;">
5</text>
<title>
t5912: 5</title>
</g>
<g>
<path d="M-220.62068339909408,117.58619841000345A250,250 0 0,1 -233.75406067135367,88.65122176063396L-165.28908143060585,62.685880067416704A176.7766952966369,176.7766952966369 0 0,0 -156.00238130150979,83.14599826966028Z" style="stroke: rgb(255, 255, 255); fill: rgb(135, 105, 191); fill-rule: evenodd;">
</path>
<text transform="rotate(155.58704453441294)" x="176.7766952966369" dx="6" dy=".35em" style="font-size: 11px; font-family: Arial, Helvetica;">
5</text>
<title>
t16512: 5</title>
</g>
<g>
<path d="M-233.75406067135367,88.65122176063396A250,250 0 0,1 -243.11102525514656,58.28404069204104L-171.90545453912816,41.213040408294894A176.7766952966369,176.7766952966369 0 0,0 -165.28908143060585,62.685880067416704Z" style="stroke: rgb(255, 255, 255); fill: rgb(143, 105, 191); fill-rule: evenodd;">
</path>
<text transform="rotate(162.8744939271255)" x="176.7766952966369" dx="6" dy=".35em" style="font-size: 11px; font-family: Arial, Helvetica;">
5</text>
<title>
t964510: 5</title>
</g>
<g>
<path d="M-243.11102525514656,58.28404069204104A250,250 0 0,1 -248.5404107507178,26.975252063038745L-175.74460984072246,19.074383657991103A176.7766952966369,176.7766952966369 0 0,0 -171.90545453912816,41.213040408294894Z" style="stroke: rgb(255, 255, 255); fill: rgb(152, 105, 191); fill-rule: evenodd;">
</path>
<text transform="rotate(170.1619433198381)" x="176.7766952966369" dx="6" dy=".35em" style="font-size: 11px; font-family: Arial, Helvetica;">
5</text>
<title>
t5726: 5</title>
</g>
<g>
<path d="M-248.5404107507178,26.975252063038745A250,250 0 0,1 -249.95450274481976,-4.7693351308007665L-176.74452387897355,-3.372429212740452A176.7766952966369,176.7766952966369 0 0,0 -175.74460984072246,19.074383657991103Z" style="stroke: rgb(255, 255, 255); fill: rgb(161, 105, 191); fill-rule: evenodd;">
</path>
<text transform="rotate(177.44939271255066)" x="176.7766952966369" dx="6" dy=".35em" style="font-size: 11px; font-family: Arial, Helvetica;">
5</text>
<title>
t2646: 5</title>
</g>
<g>
<path d="M-249.95450274481976,-4.7693351308007665A250,250 0 0,1 -247.33045588052536,-36.43687135212764L-174.8890425470797,-25.764758818311304A176.7766952966369,176.7766952966369 0 0,0 -176.74452387897355,-3.372429212740452Z" style="stroke: rgb(255, 255, 255); fill: rgb(170, 105, 191); fill-rule: evenodd;">
</path>
<text transform="rotate(184.7368421052632)" x="176.7766952966369" dx="6" dy=".35em" style="font-size: 11px; font-family: Arial, Helvetica;">
5</text>
<title>
t5181: 5</title>
</g>
<g>
<path d="M-247.33045588052536,-36.43687135212764A250,250 0 0,1 -240.71066293529051,-67.51575186023607L-170.20814206545327,-47.74084597728118A176.7766952966369,176.7766952966369 0 0,0 -174.8890425470797,-25.764758818311304Z" style="stroke: rgb(255, 255, 255); fill: rgb(179, 105, 191); fill-rule: evenodd;">
</path>
<text transform="rotate(192.02429149797578)" x="176.7766952966369" dx="6" dy=".35em" style="font-size: 11px; font-family: Arial, Helvetica;">
5</text>
<title>
t3101: 5</title>
</g>
<g>
<path d="M-240.71066293529051,-67.51575186023607A250,250 0 0,1 -230.2020699446262,-97.50388193917937L-162.7774447010251,-68.94565611120626A176.7766952966369,176.7766952966369 0 0,0 -170.20814206545327,-47.74084597728118Z" style="stroke: rgb(255, 255, 255); fill: rgb(188, 105, 191); fill-rule: evenodd;">
</path>
<text transform="rotate(199.31174089068838)" x="176.7766952966369" dx="6" dy=".35em" style="font-size: 11px; font-family: Arial, Helvetica;">
5</text>
<title>
t1545: 5</title>
</g>
<g>
<path d="M-230.2020699446262,-97.50388193917937A250,250 0 0,1 -215.9744484358972,-125.91678848672241L-152.71699705204725,-89.03661500419362A176.7766952966369,176.7766952966369 0 0,0 -162.7774447010251,-68.94565611120626Z" style="stroke: rgb(255, 255, 255); fill: rgb(191, 105, 185); fill-rule: evenodd;">
</path>
<text transform="rotate(206.59919028340096)" x="176.7766952966369" dx="6" dy=".35em" style="font-size: 11px; font-family: Arial, Helvetica;">
5</text>
<title>
t822462: 5</title>
</g>
<g>
<path d="M-215.9744484358972,-125.91678848672241A250,250 0 0,1 -198.25765268516588,-152.2954469173919L-140.18933063580812,-107.68914325912371A176.7766952966369,176.7766952966369 0 0,0 -152.71699705204725,-89.03661500419362Z" style="stroke: rgb(255, 255, 255); fill: rgb(191, 105, 176); fill-rule: evenodd;">
</path>
<text transform="rotate(213.8866396761135)" x="176.7766952966369" dx="6" dy=".35em" style="font-size: 11px; font-family: Arial, Helvetica;">
5</text>
<title>
t73940: 5</title>
</g>
<g>
<path d="M-198.25765268516588,-152.2954469173919A250,250 0 0,1 -177.33790630745688,-176.21369693212742L-125.39683611142739,-124.60190003865841A176.7766952966369,176.7766952966369 0 0,0 -140.18933063580812,-107.68914325912371Z" style="stroke: rgb(255, 255, 255); fill: rgb(191, 105, 167); fill-rule: evenodd;">
</path>
<text transform="rotate(221.17408906882608)" x="176.7766952966369" dx="6" dy=".35em" style="font-size: 11px; font-family: Arial, Helvetica;">
5</text>
<title>
t2845: 5</title>
</g>
<g>
<path d="M-177.33790630745688,-176.21369693212742A250,250 0 0,1 -153.55317817241632,-197.28512734909893L-108.57849355846173,-139.50165137579947A176.7766952966369,176.7766952966369 0 0,0 -125.39683611142739,-124.60190003865841Z" style="stroke: rgb(255, 255, 255); fill: rgb(191, 105, 158); fill-rule: evenodd;">
</path>
<text transform="rotate(228.46153846153865)" x="176.7766952966369" dx="6" dy=".35em" style="font-size: 11px; font-family: Arial, Helvetica;">
5</text>
<title>
t2498: 5</title>
</g>
<g>
<path d="M-153.55317817241632,-197.28512734909893A250,250 0 0,1 -127.28772234974001,-215.16931876783804L-90.00601163529163,-152.14768440402815A176.7766952966369,176.7766952966369 0 0,0 -108.57849355846173,-139.50165137579947Z" style="stroke: rgb(255, 255, 255); fill: rgb(191, 105, 149); fill-rule: evenodd;">
</path>
<text transform="rotate(235.74898785425123)" x="176.7766952966369" dx="6" dy=".35em" style="font-size: 11px; font-family: Arial, Helvetica;">
5</text>
<title>
t1838: 5</title>
</g>
<g>
<path d="M-127.28772234974001,-215.16931876783804A250,250 0 0,1 -98.96587029425807,-229.57734321334954L-69.9794379910982,-162.33569619295088A176.7766952966369,176.7766952966369 0 0,0 -90.00601163529163,-152.14768440402815Z" style="stroke: rgb(255, 255, 255); fill: rgb(191, 105, 141); fill-rule: evenodd;">
</path>
<text transform="rotate(243.0364372469638)" x="176.7766952966369" dx="6" dy=".35em" style="font-size: 11px; font-family: Arial, Helvetica;">
5</text>
<title>
t1477: 5</title>
</g>
<g>
<path d="M-98.96587029425807,-229.57734321334954A250,250 0 0,1 -69.0451755610019,-240.2764319107274L-48.82231184740013,-169.90109436338312A176.7766952966369,176.7766952966369 0 0,0 -69.9794379910982,-162.33569619295088Z" style="stroke: rgb(255, 255, 255); fill: rgb(191, 105, 132); fill-rule: evenodd;">
</path>
<text transform="rotate(250.32388663967635)" x="176.7766952966369" dx="6" dy=".35em" style="font-size: 11px; font-family: Arial, Helvetica;">
5</text>
<title>
t4507: 5</title>
</g>
<g>
<path d="M-69.0451755610019,-240.2764319107274A250,250 0 0,1 -38.00902180077904,-247.09373578006364L-26.87643706159818,-174.72165615880004A176.7766952966369,176.7766952966369 0 0,0 -48.82231184740013,-169.90109436338312Z" style="stroke: rgb(255, 255, 255); fill: rgb(191, 105, 123); fill-rule: evenodd;">
</path>
<text transform="rotate(257.6113360323889)" x="176.7766952966369" dx="6" dy=".35em" style="font-size: 11px; font-family: Arial, Helvetica;">
5</text>
<title>
t3733: 5</title>
</g>
<g>
<path d="M-38.00902180077904,-247.09373578006364A250,250 0 0,1 1.2863433745821622e-12,-250L9.095821231014342e-13,-176.7766952966369A176.7766952966369,176.7766952966369 0 0,0 -26.87643706159818,-174.72165615880004Z" style="stroke: rgb(255, 255, 255); fill: rgb(191, 105, 114); fill-rule: evenodd;">
</path>
<text transform="rotate(265.6275303643728)" x="176.7766952966369" dx="6" dy=".35em" style="font-size: 11px; font-family: Arial, Helvetica;">
6</text>
<title>
t350960: 6</title>
</g>
</g>
</svg>
