<svg width="405" height="90" viewBox="0 0 900 220" xmlns="http://www.w3.org/2000/svg">
<g transform="translate(0,10)">
<g>
<path class="link" d="M5,75C114.375,75 114.375,70 223.75,70" style="stroke-width: 70; fill: none; stroke: rgb(191, 105, 105); stroke-opacity: 0.4;">
<title>
7</title>
</path>
<path class="link" d="M5,135C114.375,135 114.375,140 223.75,140" style="stroke-width: 50; fill: none; stroke: rgb(191, 105, 105); stroke-opacity: 0.4;">
<title>
5</title>
</path>
<path class="link" d="M228.75,130C338.125,130 338.125,15 447.5,15" style="stroke-width: 30; fill: none; stroke: rgb(191, 156, 105); stroke-opacity: 0.4;">
<title>
3</title>
</path>
<path class="link" d="M676.25,180C785.625,180 785.625,145 895,145" style="stroke-width: 30; fill: none; stroke: rgb(105, 139, 191); stroke-opacity: 0.4;">
<title>
3</title>
</path>
<path class="link" d="M228.75,45C338.125,45 338.125,50 447.5,50" style="stroke-width: 20; fill: none; stroke: rgb(191, 131, 105); stroke-opacity: 0.4;">
<title>
2</title>
</path>
<path class="link" d="M676.25,105C785.625,105 785.625,100 895,100" style="stroke-width: 20; fill: none; stroke: rgb(105, 114, 191); stroke-opacity: 0.4;">
<title>
2</title>
</path>
<path class="link" d="M676.25,15C785.625,15 785.625,50 895,50" style="stroke-width: 20; fill: none; stroke: rgb(122, 105, 191); stroke-opacity: 0.4;">
<title>
2</title>
</path>
<path class="link" d="M228.75,100C338.125,100 338.125,175 447.5,175" style="stroke-width: 10; fill: none; stroke: rgb(191, 131, 105); stroke-opacity: 0.4;">
<title>
1</title>
</path>
<path class="link" d="M228.75,90C338.125,90 338.125,155 447.5,155" style="stroke-width: 10; fill: none; stroke: rgb(191, 131, 105); stroke-opacity: 0.4;">
<title>
1</title>
</path>
<path class="link" d="M228.75,150C338.125,150 338.125,135 447.5,135" style="stroke-width: 10; fill: none; stroke: rgb(191, 156, 105); stroke-opacity: 0.4;">
<title>
1</title>
</path>
<path class="link" d="M228.75,160C338.125,160 338.125,195 447.5,195" style="stroke-width: 10; fill: none; stroke: rgb(191, 156, 105); stroke-opacity: 0.4;">
<title>
1</title>
</path>
<path class="link" d="M452.5,155C561.875,155 561.875,180 671.25,180" style="stroke-width: 10; fill: none; stroke: rgb(191, 182, 105); stroke-opacity: 0.4;">
<title>
1</title>
</path>
<path class="link" d="M452.5,55C561.875,55 561.875,100 671.25,100" style="stroke-width: 10; fill: none; stroke: rgb(174, 191, 105); stroke-opacity: 0.4;">
<title>
1</title>
</path>
<path class="link" d="M452.5,45C561.875,45 561.875,80 671.25,80" style="stroke-width: 10; fill: none; stroke: rgb(174, 191, 105); stroke-opacity: 0.4;">
<title>
1</title>
</path>
<path class="link" d="M452.5,75C561.875,75 561.875,170 671.25,170" style="stroke-width: 10; fill: none; stroke: rgb(148, 191, 105); stroke-opacity: 0.4;">
<title>
1</title>
</path>
<path class="link" d="M676.25,130C785.625,130 785.625,115 895,115" style="stroke-width: 10; fill: none; stroke: rgb(191, 105, 131); stroke-opacity: 0.4;">
<title>
1</title>
</path>
<path class="link" d="M452.5,5C561.875,5 561.875,10 671.25,10" style="stroke-width: 10; fill: none; stroke: rgb(105, 191, 114); stroke-opacity: 0.4;">
<title>
1</title>
</path>
<path class="link" d="M452.5,25C561.875,25 561.875,150 671.25,150" style="stroke-width: 10; fill: none; stroke: rgb(105, 191, 114); stroke-opacity: 0.4;">
<title>
1</title>
</path>
<path class="link" d="M452.5,15C561.875,15 561.875,130 671.25,130" style="stroke-width: 10; fill: none; stroke: rgb(105, 191, 114); stroke-opacity: 0.4;">
<title>
1</title>
</path>
<path class="link" d="M452.5,115C561.875,115 561.875,110 671.25,110" style="stroke-width: 10; fill: none; stroke: rgb(105, 191, 139); stroke-opacity: 0.4;">
<title>
1</title>
</path>
<path class="link" d="M452.5,175C561.875,175 561.875,190 671.25,190" style="stroke-width: 10; fill: none; stroke: rgb(105, 191, 165); stroke-opacity: 0.4;">
<title>
1</title>
</path>
<path class="link" d="M452.5,135C561.875,135 561.875,40 671.25,40" style="stroke-width: 10; fill: none; stroke: rgb(105, 191, 191); stroke-opacity: 0.4;">
<title>
1</title>
</path>
<path class="link" d="M452.5,195C561.875,195 561.875,60 671.25,60" style="stroke-width: 10; fill: none; stroke: rgb(105, 165, 191); stroke-opacity: 0.4;">
<title>
1</title>
</path>
<path class="link" d="M228.75,60C338.125,60 338.125,75 447.5,75" style="stroke-width: 10; fill: none; stroke: rgb(191, 131, 105); stroke-opacity: 0.4;">
<title>
1</title>
</path>
<path class="link" d="M228.75,70C338.125,70 338.125,95 447.5,95" style="stroke-width: 10; fill: none; stroke: rgb(191, 131, 105); stroke-opacity: 0.4;">
<title>
1</title>
</path>
<path class="link" d="M228.75,80C338.125,80 338.125,115 447.5,115" style="stroke-width: 10; fill: none; stroke: rgb(191, 131, 105); stroke-opacity: 0.4;">
<title>
1</title>
</path>
<path class="link" d="M676.25,80C785.625,80 785.625,85 895,85" style="stroke-width: 10; fill: none; stroke: rgb(148, 105, 191); stroke-opacity: 0.4;">
<title>
1</title>
</path>
<path class="link" d="M676.25,40C785.625,40 785.625,65 895,65" style="stroke-width: 10; fill: none; stroke: rgb(174, 105, 191); stroke-opacity: 0.4;">
<title>
1</title>
</path>
<path class="link" d="M676.25,60C785.625,60 785.625,75 895,75" style="stroke-width: 10; fill: none; stroke: rgb(191, 105, 182); stroke-opacity: 0.4;">
<title>
1</title>
</path>
<path class="link" d="M676.25,150C785.625,150 785.625,125 895,125" style="stroke-width: 10; fill: none; stroke: rgb(191, 105, 156); stroke-opacity: 0.4;">
<title>
1</title>
</path>
<path class="link" d="M452.5,95C561.875,95 561.875,20 671.25,20" style="stroke-width: 10; fill: none; stroke: rgb(122, 191, 105); stroke-opacity: 0.4;">
<title>
1</title>
</path>
</g>
<g>
<g class="node" transform="translate(0,40)">
<rect height="120" width="5">
<title>
t287143
12</title>
</rect>
<text x="11" y="60" dy=".35em" text-anchor="start" style="font-size: 11px; font-family: Arial, Helvetica; pointer-events: none;">
t287143</text>
</g>
<g class="node" transform="translate(223.75,35)">
<rect height="70" width="5">
<title>
t280754
7</title>
</rect>
<text x="11" y="35" dy=".35em" text-anchor="start" style="font-size: 11px; font-family: Arial, Helvetica; pointer-events: none;">
t280754</text>
</g>
<g class="node" transform="translate(223.75,115)">
<rect height="50" width="5">
<title>
t696883
5</title>
</rect>
<text x="11" y="25" dy=".35em" text-anchor="start" style="font-size: 11px; font-family: Arial, Helvetica; pointer-events: none;">
t696883</text>
</g>
<g class="node" transform="translate(447.5,0)">
<rect height="30" width="5">
<title>
t10565
3</title>
</rect>
<text x="11" y="15" dy=".35em" text-anchor="start" style="font-size: 11px; font-family: Arial, Helvetica; pointer-events: none;">
t10565</text>
</g>
<g class="node" transform="translate(447.5,40)">
<rect height="20" width="5">
<title>
t117347
2</title>
</rect>
<text x="11" y="10" dy=".35em" text-anchor="start" style="font-size: 11px; font-family: Arial, Helvetica; pointer-events: none;">
t117347</text>
</g>
<g class="node" transform="translate(447.5,70)">
<rect height="10" width="5">
<title>
t190731
1</title>
</rect>
<text x="11" y="5" dy=".35em" text-anchor="start" style="font-size: 11px; font-family: Arial, Helvetica; pointer-events: none;">
t190731</text>
</g>
<g class="node" transform="translate(447.5,90)">
<rect height="10" width="5">
<title>
t216920
1</title>
</rect>
<text x="11" y="5" dy=".35em" text-anchor="start" style="font-size: 11px; font-family: Arial, Helvetica; pointer-events: none;">
t216920</text>
</g>
<g class="node" transform="translate(447.5,110)">
<rect height="10" width="5">
<title>
t282087
1</title>
</rect>
<text x="11" y="5" dy=".35em" text-anchor="start" style="font-size: 11px; font-family: Arial, Helvetica; pointer-events: none;">
t282087</text>
</g>
<g class="node" transform="translate(447.5,130)">
<rect height="10" width="5">
<title>
t288621
1</title>
</rect>
<text x="11" y="5" dy=".35em" text-anchor="start" style="font-size: 11px; font-family: Arial, Helvetica; pointer-events: none;">
t288621</text>
</g>
<g class="node" transform="translate(447.5,150)">
<rect height="10" width="5">
<title>
t330418
1</title>
</rect>
<text x="11" y="5" dy=".35em" text-anchor="start" style="font-size: 11px; font-family: Arial, Helvetica; pointer-events: none;">
t330418</text>
</g>
<g class="node" transform="translate(447.5,170)">
<rect height="10" width="5">
<title>
t350022
1</title>
</rect>
<text x="11" y="5" dy=".35em" text-anchor="start" style="font-size: 11px; font-family: Arial, Helvetica; pointer-events: none;">
t350022</text>
</g>
<g class="node" transform="translate(447.5,190)">
<rect height="10" width="5">
<title>
t454055
1</title>
</rect>
<text x="11" y="5" dy=".35em" text-anchor="start" style="font-size: 11px; font-family: Arial, Helvetica; pointer-events: none;">
t454055</text>
</g>
<g class="node" transform="translate(671.25,5)">
<rect height="20" width="5">
<title>
t109829
2</title>
</rect>
<text x="-6" y="10" dy=".35em" text-anchor="end" style="font-size: 11px; font-family: Arial, Helvetica; pointer-events: none;">
t109829</text>
</g>
<g class="node" transform="translate(671.25,35)">
<rect height="10" width="5">
<title>
t128233
1</title>
</rect>
<text x="-6" y="5" dy=".35em" text-anchor="end" style="font-size: 11px; font-family: Arial, Helvetica; pointer-events: none;">
t128233</text>
</g>
<g class="node" transform="translate(671.25,55)">
<rect height="10" width="5">
<title>
t189234
1</title>
</rect>
<text x="-6" y="5" dy=".35em" text-anchor="end" style="font-size: 11px; font-family: Arial, Helvetica; pointer-events: none;">
t189234</text>
</g>
<g class="node" transform="translate(671.25,75)">
<rect height="10" width="5">
<title>
t22698
1</title>
</rect>
<text x="-6" y="5" dy=".35em" text-anchor="end" style="font-size: 11px; font-family: Arial, Helvetica; pointer-events: none;">
t22698</text>
</g>
<g class="node" transform="translate(671.25,95)">
<rect height="20" width="5">
<title>
t249854
2</title>
</rect>
<text x="-6" y="10" dy=".35em" text-anchor="end" style="font-size: 11px; font-family: Arial, Helvetica; pointer-events: none;">
t249854</text>
</g>
<g class="node" transform="translate(671.25,125)">
<rect height="10" width="5">
<title>
t6981
1</title>
</rect>
<text x="-6" y="5" dy=".35em" text-anchor="end" style="font-size: 11px; font-family: Arial, Helvetica; pointer-events: none;">
t6981</text>
</g>
<g class="node" transform="translate(671.25,145)">
<rect height="10" width="5">
<title>
t81489
1</title>
</rect>
<text x="-6" y="5" dy=".35em" text-anchor="end" style="font-size: 11px; font-family: Arial, Helvetica; pointer-events: none;">
t81489</text>
</g>
<g class="node" transform="translate(671.25,165)">
<rect height="30" width="5">
<title>
t95414
3</title>
</rect>
<text x="-6" y="15" dy=".35em" text-anchor="end" style="font-size: 11px; font-family: Arial, Helvetica; pointer-events: none;">
t95414</text>
</g>
<g class="node" transform="translate(895,40)">
<rect height="120" width="5" style="fill: rgb(102, 102, 102);">
<title>
t16990
12</title>
</rect>
<text x="-6" y="60" dy=".35em" text-anchor="end" style="font-size: 11px; font-family: Arial, Helvetica; pointer-events: none;">
t16990</text>
</g>
</g>
</g>
</svg>
